<svg xmlns="http://www.w3.org/2000/svg" viewBox="0 0 1024 1024">
  <defs>
    <linearGradient id="grad" x1="0%" y1="0%" x2="100%" y2="100%">
      <stop offset="0%" style="stop-color:#3B82F6"/>
      <stop offset="100%" style="stop-color:#8B5CF6"/>
    </linearGradient>
  </defs>
  <rect width="1024" height="1024" rx="200" fill="url(#grad)"/>
  <g transform="translate(256, 256) scale(0.5)">
    <circle cx="512" cy="512" r="160" fill="none" stroke="white" stroke-width="80"/>
    <circle cx="512" cy="512" r="80" fill="white"/>
    <g fill="white">
      <rect x="472" y="200" width="80" height="120" rx="16"/>
      <rect x="472" y="704" width="80" height="120" rx="16"/>
      <rect x="200" y="472" width="120" height="80" rx="16"/>
      <rect x="704" y="472" width="120" height="80" rx="16"/>
      <rect x="280" y="280" width="100" height="100" rx="16" transform="rotate(45 330 330)"/>
      <rect x="644" y="280" width="100" height="100" rx="16" transform="rotate(-45 694 330)"/>
      <rect x="280" y="644" width="100" height="100" rx="16" transform="rotate(-45 330 694)"/>
      <rect x="644" y="644" width="100" height="100" rx="16" transform="rotate(45 694 694)"/>
    </g>
  </g>
  <rect x="320" y="760" width="384" height="40" rx="20" fill="white" opacity="0.8"/>
</svg>